<svg xmlns="http://www.w3.org/2000/svg" width="315.086" height="280.683" viewBox="0 0 315.086 280.683"><defs><style>.a{fill:#fff;}.b{fill:#e6e6e6;}.c{fill:#1a1a1d;}.d{fill:#ffb8b8;}.e{fill:#2f2e41;}.f{fill:#222226;}</style></defs><g transform="translate(-42.914 3)"><path class="a" d="M494.983,231.453c-3.31,12.235-14.646,19.812-14.646,19.812s-5.97-12.259-2.661-24.493,14.646-19.812,14.646-19.812S498.293,219.219,494.983,231.453Z" transform="translate(-330.442 -164.082)"/><path class="a" d="M445.254,231.453c3.31,12.235,14.646,19.812,14.646,19.812s5.97-12.259,2.661-24.493-14.646-19.812-14.646-19.812S441.945,219.219,445.254,231.453Z" transform="translate(-310.821 -164.082)"/><path d="M199.594,310.406V487.2H418.825V310.406Zm143.923,89.583a41.277,41.277,0,0,1-.277,4.779l-.956-.118a39.485,39.485,0,0,1-.814,4.594l.935.236a40.321,40.321,0,0,1-1.386,4.577l-.9-.351a39,39,0,0,1-1.868,4.26l.853.461a39.959,39.959,0,0,1-2.415,4.1l-.792-.563a38.694,38.694,0,0,1-2.8,3.675l.721.656a39.44,39.44,0,0,1-3.294,3.387l-.639-.741a37.964,37.964,0,0,1-3.574,2.883l.548.814a38.552,38.552,0,0,1-3.984,2.481l-.449-.875a36.958,36.958,0,0,1-4.142,1.92l.342.925a37.61,37.61,0,0,1-4.45,1.425l-.23-.961a36.557,36.557,0,0,1-4.47.839l.115.982a38.135,38.135,0,0,1-4.65.287v-.987h-.018a36.99,36.99,0,0,1-4.517-.278l-.115.983a37.848,37.848,0,0,1-4.585-.855l.229-.962a36.606,36.606,0,0,1-4.342-1.386l-.341.926a37.983,37.983,0,0,1-4.252-1.967l.448-.876a37.422,37.422,0,0,1-3.889-2.418l-.547.814a39.158,39.158,0,0,1-3.668-2.954l.639-.741a38.386,38.386,0,0,1-3.215-3.3l-.72.657a39.876,39.876,0,0,1-2.878-3.765l.792-.564a38.894,38.894,0,0,1-2.356-3.991l-.852.461a40.188,40.188,0,0,1-1.918-4.366l.9-.352a39.152,39.152,0,0,1-1.354-4.458l-.935.237a40.637,40.637,0,0,1-.839-4.712l.955-.119a40.125,40.125,0,0,1-.277-4.68l-.961.019v-.052a41.2,41.2,0,0,1,.272-4.716l.957.108a39.5,39.5,0,0,1,.81-4.6l-.936-.235a40.294,40.294,0,0,1,1.381-4.578l.9.35a39.021,39.021,0,0,1,1.864-4.262l-.853-.46a40.056,40.056,0,0,1,2.411-4.1l.793.562a38.727,38.727,0,0,1,2.8-3.678l-.721-.656a39.51,39.51,0,0,1,3.291-3.39l.64.74a37.971,37.971,0,0,1,3.571-2.886l-.549-.814a38.6,38.6,0,0,1,3.981-2.485l.45.876a36.95,36.95,0,0,1,4.14-1.924l-.343-.925a37.574,37.574,0,0,1,4.449-1.429l.231.961a36.59,36.59,0,0,1,4.469-.844l-.116-.982a38.028,38.028,0,0,1,4.65-.292v.988h.055a37,37,0,0,1,4.481.274l.114-.983a37.7,37.7,0,0,1,4.586.851l-.228.962a36.593,36.593,0,0,1,4.344,1.382l.34-.926a37.932,37.932,0,0,1,4.254,1.963l-.447.877a37.429,37.429,0,0,1,3.891,2.414l.547-.815a39.228,39.228,0,0,1,3.671,2.95l-.638.742a38.383,38.383,0,0,1,3.218,3.3l.72-.658a39.872,39.872,0,0,1,2.882,3.762l-.792.565a38.9,38.9,0,0,1,2.36,3.989l.852-.463a40.17,40.17,0,0,1,1.923,4.364l-.9.353a39.154,39.154,0,0,1,1.358,4.456l.935-.238a40.7,40.7,0,0,1,.843,4.71l-.955.12a40.123,40.123,0,0,1,.28,4.661h.961Z" transform="translate(-156.68 -226.683)"/><circle class="a" cx="3.948" cy="3.948" r="3.948" transform="translate(47.335 87.62)"/><circle class="a" cx="3.948" cy="3.948" r="3.948" transform="translate(59.575 87.62)"/><circle class="a" cx="3.948" cy="3.948" r="3.948" transform="translate(71.815 87.62)"/><rect class="b" width="204.53" height="0.79" transform="translate(46.862 100.965)"/><rect class="b" width="78.574" height="0.79" transform="translate(105.299 227.711)"/><rect class="b" width="78.574" height="0.79" transform="translate(105.299 236.002)"/><rect class="b" width="78.574" height="0.79" transform="translate(105.299 244.294)"/><path class="c" d="M827.758,295.848h0c-7.786,0-14.1,7.005-14.1,15.647v10.979h3.377l1.955-4.068-.489,4.068h21.7l1.777-3.7-.444,3.7h2.444v-8.62C843.982,303.909,836.718,295.848,827.758,295.848Z" transform="translate(-534.368 -217.873)"/><path class="d" d="M765.634,614.389l6.447,17.306,7.8,4.072-6.108-21.378Z" transform="translate(-472.138 -371.8)"/><path class="d" d="M855.871,612.626l9.84,20.02,5.09-3.054-7.465-20.36Z" transform="translate(-526.746 -368.68)"/><circle class="d" cx="9.501" cy="9.501" r="9.501" transform="translate(281.62 82.426)"/><path class="d" d="M840.181,344.369s3.393,8.823,1.357,11.2,12.894-3.733,12.894-3.733-6.447-7.8-6.108-11.2Z" transform="translate(-550.418 -244.977)"/><path class="d" d="M792.712,314.992l5.09-1.018,5.09-6.108s2.375-8.483,5.429-10.859v-1.018s-15.609-10.18-20.36-9.841c0,0-15.948,4.751-12.894,0a10.047,10.047,0,0,1,4.014-3.248,19.7,19.7,0,0,1,15.6-.772l22.119,8.092a8.8,8.8,0,0,1-.339,7.465c-2.036,4.072-9.162,25.11-9.162,25.11a94.2,94.2,0,0,0-4.411,10.519c-1.7,5.09-3.054,8.483-3.054,8.483L771,341.459l2.375-10.519S771,326.529,767.6,326.19c0,0-24.432-9.5-25.45-15.27a3.421,3.421,0,0,1,1.018-3.054c1.357-1.018,16.627-17.645,16.627-17.645s6.787-8.823,10.18-6.108-6.108,9.5-6.108,9.5-9.841,14.93-11.2,15.948c0,0,9.5,5.769,12.216,6.447s9.162,0,12.216,2.715a10.693,10.693,0,0,0,8.144-1.018A20.455,20.455,0,0,1,792.712,314.992Z" transform="translate(-491.072 -208.813)"/><path class="e" d="M797.289,367.053l-5.09,13.573s-4.411,4.072-2.715,13.573c0,0,.679,8.823-1.357,11.537s-30.2,33.594-3.393,98.744c0,0,17.984-3.393,31.557,2.375s35.969-6.108,35.969-6.108L816.97,413.88s-1.018-17.984,4.751-26.128l-3.733-3.054s-4.411-10.858-3.732-14.252c0,0,1.357-6.787,2.036-7.465h-2.715l-3.732,8.823s-6.108,11.537-11.2,10.519-1.018-8.144-1.018-8.144l1.7-6.787Z" transform="translate(-509.901 -258.498)"/><path class="e" d="M859.859,755.459s-7.708-3.153-8.265-2.255-3.272,6.327-3.272,6.327-10.519,10.859-2.036,12.216,9.5-3.393,9.5-3.393.339-.339,1.7-.339,6.787-2.036,6.447-3.054S859.859,755.459,859.859,755.459Z" transform="translate(-552.111 -494.547)"/><path class="e" d="M964.812,753.146s-7.126,1.7-7.465,3.054-2.715,10.519-.679,11.2,5.09,1.7,6.108,1.357,3.393,4.411,8.483,3.393,7.465-1.7,7.126-2.036-1.7-5.429-5.769-7.465S964.812,753.146,964.812,753.146Z" transform="translate(-620.417 -494.609)"/><path class="f" d="M835.341,302.2a7.394,7.394,0,0,0-5.834-2.977h-.277c-5.337,0-9.663,4.829-9.663,10.786h1.788l.289-2.2.423,2.2h10.606l.888-1.86-.222,1.86h2.087q1.46,7.253-4.2,14.506h3.554l1.777-3.719-.444,3.719h6.775l1.333-8.555C844.225,309.555,840.5,304.122,835.341,302.2Z" transform="translate(-537.943 -219.916)"/><path d="M792.111,137.96c0-.032,0-.063,0-.095a39.047,39.047,0,0,0-.268-4.548l1.13-.138a39.7,39.7,0,0,0-.867-4.71l-1.082.268a38.408,38.408,0,0,0-1.367-4.451l1.017-.388a39.579,39.579,0,0,0-1.976-4.364l-.938.5a38.649,38.649,0,0,0-2.4-4l.848-.589a40.017,40.017,0,0,0-2.961-3.763l-.75.667a38.931,38.931,0,0,0-3.287-3.317l.646-.731a40.068,40.068,0,0,0-3.773-2.951l-.538.78a38.669,38.669,0,0,0-3.99-2.442l.426-.814a39.676,39.676,0,0,0-4.372-1.963l-.315.834a38.392,38.392,0,0,0-4.469-1.411l.205-.841a39.628,39.628,0,0,0-4.714-.851l-.1.835a39.061,39.061,0,0,0-4.68-.294v-.819a40.2,40.2,0,0,0-4.779.292l.1.8a38.535,38.535,0,0,0-4.619.831l-.188-.762a39.512,39.512,0,0,0-4.571,1.43l.274.721a38.459,38.459,0,0,0-4.284,1.926l-.355-.673a39.835,39.835,0,0,0-4.092,2.485l.429.62a38.857,38.857,0,0,0-3.695,2.9l-.5-.561a40.05,40.05,0,0,0-3.383,3.39l.562.5a38.848,38.848,0,0,0-2.894,3.7l-.62-.428a39.757,39.757,0,0,0-2.478,4.1l.674.353a38.424,38.424,0,0,0-1.917,4.29l-.721-.273a39.464,39.464,0,0,0-1.42,4.578l.763.186a38.535,38.535,0,0,0-.82,4.621l-.8-.095a40.324,40.324,0,0,0-.28,4.741v.037l.82-.016a39.059,39.059,0,0,0,.3,4.695l-.833.1a39.659,39.659,0,0,0,.862,4.711l.84-.207a38.392,38.392,0,0,0,1.421,4.463l-.834.317a39.671,39.671,0,0,0,1.972,4.365l.813-.429a38.705,38.705,0,0,0,2.449,3.982l-.778.539a40.1,40.1,0,0,0,2.958,3.766l.73-.648a38.925,38.925,0,0,0,3.324,3.28l-.666.752a39.965,39.965,0,0,0,3.77,2.954l.587-.85a38.676,38.676,0,0,0,4.005,2.39l-.493.939a39.683,39.683,0,0,0,4.37,1.967l.386-1.018a38.37,38.37,0,0,0,4.457,1.357l-.265,1.082a39.652,39.652,0,0,0,4.712.856l.135-1.131a39.086,39.086,0,0,0,4.455.257l.188,0v1.159a40.235,40.235,0,0,0,4.779-.287l-.141-1.169a38.521,38.521,0,0,0,4.568-.852l.286,1.161a39.581,39.581,0,0,0,4.573-1.425l-.429-1.13a38.48,38.48,0,0,0,4.228-1.918l.568,1.079a39.811,39.811,0,0,0,4.095-2.482l-.7-1.008a38.835,38.835,0,0,0,3.649-2.868l.815.92a40,40,0,0,0,3.386-3.387l-.92-.815a38.819,38.819,0,0,0,2.868-3.651l1.008.7a39.9,39.9,0,0,0,2.482-4.1l-1.079-.567a38.495,38.495,0,0,0,1.917-4.23l1.131.429a39.536,39.536,0,0,0,1.424-4.577l-1.16-.285a38.549,38.549,0,0,0,.849-4.568l1.169.141a40.282,40.282,0,0,0,.285-4.779v-.075Z" transform="translate(-474.015 -101.365)"/></g></svg>