<svg xmlns="http://www.w3.org/2000/svg" width="304.109" height="213.437" viewBox="0 0 304.109 213.437"><defs><style>.a{fill:#2f2e41;}.b{opacity:0.1;}.c{fill:#a0616a;}.d{fill:#d0cde1;}.e{fill:#f2f2f2;}.f{fill:#fff;}.g{fill:#e7e7e7;}.h{fill:none;stroke:#707070;}.i{fill:#6c63ff;}.j{fill:#e0e0e0;}.k{fill:#3f3d56;}.l{fill:#ececec;}.m{fill:#616163;}.n{fill:#9d9ca1;}.o{fill:#77777e;}.p{fill:#929196;}</style></defs><g transform="translate(0)"><path class="a" d="M183.1,643.744h10.412l25.658-10.04s18.221-7.437,16.733,6.693-4.09,33.095-4.09,33.095-8.181-3.719-12.643-2.6-1.487-22.683-1.487-22.683-36.442,17.477-39.788,15.246-4.09-17.849-4.09-17.849Z" transform="translate(-142.2 -473.665)"/><path class="b" d="M183.1,643.744h10.412l25.658-10.04s18.221-7.437,16.733,6.693-4.09,33.095-4.09,33.095-8.181-3.719-12.643-2.6-1.487-22.683-1.487-22.683-36.442,17.477-39.788,15.246-4.09-17.849-4.09-17.849Z" transform="translate(-142.2 -473.665)"/><path class="c" d="M241.041,558.82l12.6,18.1,29.376,24.542s27.145,6.321,23.427,10.784-26.4-4.462-26.4-4.462-33.839-24.542-34.954-26.4S231.7,562.05,231.7,562.05Z" transform="translate(-183.733 -421.348)"/><path class="b" d="M241.041,558.82l12.6,18.1,29.376,24.542s27.145,6.321,23.427,10.784-26.4-4.462-26.4-4.462-33.839-24.542-34.954-26.4S231.7,562.05,231.7,562.05Z" transform="translate(-183.733 -421.348)"/><path class="d" d="M207.132,507.092l8.181,15.99s-1.859,7.809-4.834,8.553-15.618-9.668-15.618-9.668Z" transform="translate(-157.304 -384.239)"/><path class="b" d="M207.132,507.092l2.5,4.885,5.681,11.1s-1.859,7.809-4.834,8.553-15.618-9.668-15.618-9.668Z" transform="translate(-157.304 -384.239)"/><path class="a" d="M562.762,643.693l2.417,9.968a.621.621,0,0,1-.012.336L554.2,688.254a.623.623,0,0,1-1.212-.119l-1.516-13.345a.623.623,0,0,1,.027-.263l10.062-30.879a.623.623,0,0,1,1.2.046Z" transform="translate(-413.133 -481.893)"/><path class="e" d="M501.764,575.493,504,584.046l-9.668,31.235-2.231-9.668Z" transform="translate(-353.024 -412.851)"/><path class="a" d="M415.758,768.93c.372,1.115,38.672-.372,39.044-.744a8.088,8.088,0,0,0,.818-1.487c.35-.744.669-1.487.669-1.487L454.8,753.171l-37.929-1.346s-.948,10.2-1.142,14.874A11.159,11.159,0,0,0,415.758,768.93Z" transform="translate(-315.73 -559.807)"/><path class="b" d="M434.4,689.965l.744,10.412H418.413V689.965Z" transform="translate(-300.164 -494.972)"/><path class="b" d="M374.135,701.756l.1-.02-.472,4.482h-9.3v-4.462Z" transform="translate(-261.464 -503.417)"/><path class="b" d="M415.758,806.687c.372,1.115,38.672-.372,39.044-.744a8.07,8.07,0,0,0,.818-1.487H415.732A11.165,11.165,0,0,0,415.758,806.687Z" transform="translate(-315.73 -597.563)"/><circle class="c" cx="16.733" cy="16.733" r="16.733" transform="translate(38.673 84.181)"/><path class="c" d="M189.412,445.506s-5.578,9.668-6.693,14.874-16.733-10.412-16.733-10.412l-2.045-5.392s14.688-6.879,13.573-12.457S189.412,445.506,189.412,445.506Z" transform="translate(-135.122 -329.717)"/><path class="c" d="M219.288,584.722l15.246,20.08,36.441,27.145s26.4,5.578,20.452,9.668-23.055-3.719-23.055-3.719-36.813-19.708-44.622-27.889-22.311-21.939-22.311-21.939Z" transform="translate(-162.023 -439.929)"/><path class="a" d="M108.221,689.364l4.462,7.065,26.631-8.378a20.938,20.938,0,0,1,17.433,2.1c4.648,2.928,7.623,7.576.93,14.456-13.387,13.758-22.311,6.321-22.311,6.321s-44.994,21.2-52.431,10.784S75.126,706.1,75.126,706.1,103.759,688.248,108.221,689.364Z" transform="translate(-71.407 -513.336)"/><path d="M290.482,773.592s11.9,7.809-2.231,11.527-24.542-1.487-24.542-1.487-12.271,0-12.271-6.322,4.09-7.065,4.09-7.065l12.643,1.859S283.417,768.014,290.482,773.592Z" transform="translate(-197.891 -573.021)"/><path class="a" d="M215.553,363.106a12.473,12.473,0,0,0,3.507,1.256,3.2,3.2,0,0,0,3.234-1.386,4.35,4.35,0,0,0,.367-1.967c.045-2.042-.1-4.249-1.4-5.83-.824-1.006-2.026-1.64-2.878-2.621a12.385,12.385,0,0,1-1.455-2.377c-1.658-3.114-4.112-6.106-7.524-7a16.32,16.32,0,0,0-4.392-.336l-8.591.121a14.957,14.957,0,0,0-4.133.445c-2.765.836-4.778,3.161-6.622,5.385a33.676,33.676,0,0,0-3.8,5.242,18.392,18.392,0,0,0-2.18,9.012,8.431,8.431,0,0,0,.309,2.384,13.234,13.234,0,0,0,.937,2.059c1.611,3.164,2.568,7.117.753,10.169,3.152-1.287,6.27-2.975,8.349-5.671a15.635,15.635,0,0,1,2.9-3.5c1.239-.885,3.259-.962,4.054.337a3.633,3.633,0,0,1,.41,1.7,7.8,7.8,0,0,0,.47,2.872,2.152,2.152,0,0,0,2.338,1.334c1.619-.456,1.464-2.941,2.711-4.07.947-.857,2.408-.693,3.625-1.083a5.379,5.379,0,0,0,3.087-3.041c.461-1.033.454-3.737,1.326-4.3C212.054,361.539,214.54,362.655,215.553,363.106Z" transform="translate(-146.42 -266.402)"/><path class="f" d="M89.458,472.183a4.413,4.413,0,0,1,2.3.006c2.387.641,7.738,2.337,8.885,4.919,1.487,3.347,6.693,8.553,6.693,8.553s7.065,7.065,5.578,11.9-7.065,10.412-7.065,10.412,1.487,23.055-5.95,29-10.412,1.859-10.412,7.437S66.43,567.468,61.968,556.684c0,0,2.231-20.08,1.487-27.145C62.723,522.576,63.8,479.131,89.458,472.183Z" transform="translate(-61.968 -359.089)"/><path class="f" d="M157.375,503.3s22.683,16.733,18.593,23.8c0,0-13.759,6.693-16.733,6.321s-14.5-13.387-17.477-14.5S137.3,497.72,157.375,503.3Z" transform="translate(-117.959 -380.816)"/><circle class="e" cx="18.37" cy="18.37" r="18.37" transform="translate(122.389 48.739)"/><path class="g" d="M835.591,170.748H732.649V149.207H835.591ZM733.1,170.294H835.137V149.661H733.1Z" transform="translate(-543.106 -127.496)"/><rect class="h" width="102.488" height="21.087" transform="translate(182.514 26.019)"/><circle class="i" cx="1.587" cy="1.587" r="1.587" transform="translate(116.139 2.721)"/><circle class="i" cx="1.587" cy="1.587" r="1.587" transform="translate(121.581 2.721)"/><circle class="i" cx="1.587" cy="1.587" r="1.587" transform="translate(127.023 2.721)"/><path class="j" d="M653.4,196.641H462.487V72.386H653.4Zm-190.464-.453H652.951V72.84H462.941Z" transform="translate(-349.295 -72.386)"/><rect class="f" width="190.464" height="0.453" transform="translate(113.418 6.878)"/><path class="k" d="M475.534,82.432a1.814,1.814,0,1,1,1.814-1.814A1.814,1.814,0,0,1,475.534,82.432Zm0-3.174a1.36,1.36,0,1,0,1.36,1.36,1.36,1.36,0,0,0-1.36-1.36Z" transform="translate(-357.353 -76.991)"/><path class="k" d="M494.789,82.432a1.814,1.814,0,1,1,1.814-1.814A1.814,1.814,0,0,1,494.789,82.432Zm0-3.174a1.36,1.36,0,1,0,1.36,1.36,1.36,1.36,0,0,0-1.36-1.36Z" transform="translate(-371.167 -76.991)"/><path class="k" d="M514.044,82.432a1.814,1.814,0,1,1,1.814-1.814A1.814,1.814,0,0,1,514.044,82.432Zm0-3.174a1.36,1.36,0,1,0,1.36,1.36,1.361,1.361,0,0,0-1.36-1.36Z" transform="translate(-384.98 -76.991)"/><rect class="l" width="0.453" height="117.099" transform="translate(172.99 7.105)"/><rect class="e" width="33.331" height="4.535" transform="translate(194.645 64.678)"/><rect class="e" width="33.331" height="4.535" transform="translate(247.022 64.678)"/><path class="m" d="M790.1,297.408H756.317V292.42H790.1Zm-33.331-.453h32.878v-4.081H756.771Z" transform="translate(-560.085 -230.236)"/><rect class="e" width="33.331" height="4.535" transform="translate(194.645 99.824)"/><path class="n" d="M790.1,421.766H756.317v-4.988H790.1Zm-33.331-.454h32.878v-4.081H756.771Z" transform="translate(-560.085 -319.448)"/><rect class="e" width="85.709" height="4.535" transform="translate(194.758 81.797)"/><path class="o" d="M842.881,359.587H756.718V354.6H842.88Zm-85.71-.453h85.256v-4.082H757.172Z" transform="translate(-560.373 -274.842)"/><path class="p" d="M975.434,297.408H941.651V292.42h33.783Zm-33.331-.453h32.878v-4.081H942.1Z" transform="translate(-693.042 -230.236)"/><path class="f" d="M523.684,263.149A18.652,18.652,0,1,1,542.337,244.5a18.652,18.652,0,0,1-18.653,18.652Zm0-36.74A18.087,18.087,0,1,0,541.772,244.5,18.087,18.087,0,0,0,523.684,226.409Z" transform="translate(-379.817 -182.475)"/></g></svg>